<?xml version="1.0" encoding="UTF-8"?>
<svg id="Layer_1" xmlns="http://www.w3.org/2000/svg" version="1.1" viewBox="0 0 512 512">
  <!-- Generator: Adobe Illustrator 30.3.0, SVG Export Plug-In . SVG Version: 2.1.3 Build 182)  -->
  <defs>
    <style>
      .st0 {
        fill: #06057a;
      }
    </style>
  </defs>
  <path class="st0" d="M378.67,210.21c-21.79-47.02-69.44-78.04-121.42-78.59-21.89-.23-43.58,4.99-62.94,14.85-38.92,19.8-65.79,57.18-72.98,100.18-3.59,21.48-2.38,43.5,3.59,64.54,3.82,13.48,9.74,26.01,17.31,37.75,13.1,20.33,31.19,36.69,52.91,47.48,20.06,9.97,42.52,15.09,65.05,14.36,32.24-1.05,64.81-14.39,88.16-36.63,18.24-17.38,31.47-39.65,38.29-63.89,9.25-32.89,6.38-69.12-7.95-100.05h-.02ZM383.34,311.21c-5.24,17.99-14.16,34.9-26.25,49.38-18.15,21.74-42.61,36.62-69.94,43.31-24.13,5.9-49.47,4.76-73.1-2.99-26.86-8.8-50.37-26.24-66.6-49.31-19.94-28.34-28.06-62.4-24.28-96.64,4.94-44.7,31.72-84.32,71.75-105,14.66-7.57,30.8-12.19,47.32-14.05,32.04-3.61,65.95,5.74,91.79,24.78,18.13,13.36,32.59,30.65,42.06,51.11,14.29,30.9,16.78,66.64,7.24,99.4h.01ZM378.62,231.14c-4.1-13.56-10.16-26.15-18.42-37.68-11.43-15.96-26.47-29.26-43.87-38.47-9.24-4.89-18.98-8.66-29.03-11.22,36.44,9.43,67.75,34.87,83.97,69.86,13.47,29.06,16.21,63.48,7.5,94.42-6.49,23.09-18.96,43.9-36.06,60.2-21.56,20.54-52.51,33.39-82.8,34.39-1.33.04-2.67.07-4,.07-19.52,0-39.28-4.69-57.15-13.57-20.16-10.02-37.34-25.44-49.69-44.6-7.38-11.46-12.87-23.43-16.32-35.56-5.67-20-6.81-40.51-3.39-60.97,6.79-40.62,32.45-75.86,68.63-94.27,6.17-3.14,12.59-5.77,19.16-7.88-8.16,2.56-16.08,5.93-23.62,10.05-15.66,8.56-29.32,20.65-40.09,34.75-20.89,27.32-29.42,61.06-25.98,95.17,3.16,31.34,17.23,60.72,40.19,82.35,15.45,14.55,34.36,25.06,54.92,30.41,21.74,5.66,44.45,5.88,66.35.06,20.66-5.5,39.39-15.78,54.8-30.38,36.93-34.99,49.54-88.67,34.9-137.12h0ZM378.67,210.21c-21.79-47.02-69.44-78.04-121.42-78.59-21.89-.23-43.58,4.99-62.94,14.85-38.92,19.8-65.79,57.18-72.98,100.18-3.59,21.48-2.38,43.5,3.59,64.54,3.82,13.48,9.74,26.01,17.31,37.75,13.1,20.33,31.19,36.69,52.91,47.48,20.06,9.97,42.52,15.09,65.05,14.36,32.24-1.05,64.81-14.39,88.16-36.63,18.24-17.38,31.47-39.65,38.29-63.89,9.25-32.89,6.38-69.12-7.95-100.05h-.02ZM383.34,311.21c-5.24,17.99-14.16,34.9-26.25,49.38-18.15,21.74-42.61,36.62-69.94,43.31-24.13,5.9-49.47,4.76-73.1-2.99-26.86-8.8-50.37-26.24-66.6-49.31-19.94-28.34-28.06-62.4-24.28-96.64,4.94-44.7,31.72-84.32,71.75-105,14.66-7.57,30.8-12.19,47.32-14.05,32.04-3.61,65.95,5.74,91.79,24.78,18.13,13.36,32.59,30.65,42.06,51.11,14.29,30.9,16.78,66.64,7.24,99.4h.01ZM378.62,231.14c-4.1-13.56-10.16-26.15-18.42-37.68-11.43-15.96-26.47-29.26-43.87-38.47-9.24-4.89-18.98-8.66-29.03-11.22,36.44,9.43,67.75,34.87,83.97,69.86,13.47,29.06,16.21,63.48,7.5,94.42-6.49,23.09-18.96,43.9-36.06,60.2-21.56,20.54-52.51,33.39-82.8,34.39-1.33.04-2.67.07-4,.07-19.52,0-39.28-4.69-57.15-13.57-20.16-10.02-37.34-25.44-49.69-44.6-7.38-11.46-12.87-23.43-16.32-35.56-5.67-20-6.81-40.51-3.39-60.97,6.79-40.62,32.45-75.86,68.63-94.27,6.17-3.14,12.59-5.77,19.16-7.88-8.16,2.56-16.08,5.93-23.62,10.05-15.66,8.56-29.32,20.65-40.09,34.75-20.89,27.32-29.42,61.06-25.98,95.17,3.16,31.34,17.23,60.72,40.19,82.35,15.45,14.55,34.36,25.06,54.92,30.41,21.74,5.66,44.45,5.88,66.35.06,20.66-5.5,39.39-15.78,54.8-30.38,36.93-34.99,49.54-88.67,34.9-137.12h0ZM448.4,200.64c-11.93-2.62-21.04-9.8-30.44-23.98l-8.31-13.35c-7.53-12.11-15.53-19.68-25.93-24.55-5.62-2.63-11.56-3.97-17.67-3.97-3.82,0-7.61.53-11.32,1.57-2.13-14.11-9.41-25.83-20.64-32.57-6-3.61-11.28-5.83-16.61-6.99l-15.25-3.33c-.78-.17-1.55-.34-2.31-.5-4.34-.94-8.44-1.82-12.56-3-12.58-4.11-19.7-9.18-23.81-16.94l-7.27-13.74-7.16,13.8c-2.8,5.4-7.09,9.51-13.13,12.58-5.61,2.85-11.77,4.92-18.81,6.3l-17.97,3.54c-7.57,1.49-14.3,3.93-20.58,7.45-8.02,4.5-14.3,11.38-18.18,19.9-1.89,4.16-3.22,8.73-3.96,13.55-3.88-1.08-7.79-1.62-11.7-1.62-14.53,0-28.3,7.62-38.78,21.44-3,3.96-5.34,7.8-7.83,11.87-10.69,17.5-18.41,28.42-35.45,32.57l-15.15,3.69,11.68,10.33c8.3,7.33,11.8,17.62,11.7,34.39l-.58,19.11c-.21,6.88.36,13.19,1.72,19.28v.03c2.18,9.54,6.97,17.53,14.24,23.76,3.81,3.27,8.27,6.05,13.48,8.4-7.06,13.56-7.66,29.54-1.23,43.79,2.92,6.47,6.86,12.57,12.77,19.78l10.85,13.24c8.07,11.15,11.39,21.54,10.45,32.67l-1.11,13.09,12.22-4.81c4.19-1.65,8.49-2.45,13.14-2.45,6.84,0,14.3,1.72,23.48,5.43l17.6,7.1c6.37,2.57,12.67,4.17,19.27,4.9,1.82.2,3.66.3,5.47.3,10.65,0,20.72-3.48,29.13-10.08,1.32-1.03,2.55-2.09,3.72-3.17,3.87,3.48,7.93,6.28,12.13,8.36,6.5,3.23,13.55,4.87,20.96,4.87,8,0,16.43-1.84,25.76-5.62l16.89-6.84c9.1-3.59,16.41-5.26,23-5.26,4.63,0,8.93.81,13.17,2.48l12.21,4.81-1.1-13.08c-.61-7.28.63-14.4,3.69-21.16,2.41-5.31,5.16-9.8,8.4-13.7l9.46-11.38c5.12-6.16,9.05-12.22,12-18.53,6.83-14.59,6.37-30.93-.8-44.73,4.76-2.15,8.97-4.7,12.58-7.63,7.27-5.92,12.15-13.39,14.53-22.21,1.82-6.66,2.6-13.53,2.37-21l-.61-19.52c-.49-15.87,3.45-27.48,11.7-34.51l12.49-10.64-16.03-3.52h.02ZM432.08,249.57l.61,19.52c.2,6.39-.42,12.53-2.08,18.61-4.09,15.24-16.84,23.55-31.72,27.89,10.88,13.03,12.96,30.25,5.89,45.38-2.86,6.11-6.53,11.54-10.88,16.77l-9.46,11.38c-3.96,4.76-7,9.89-9.56,15.54-3.62,8-5.13,16.44-4.39,25.21-14.46-5.7-28.47-2.62-42.18,2.79l-16.93,6.86c-21.91,8.88-39.88,6.57-55.75-11.64-2.88,3.04-5.58,5.83-8.79,8.34-8.22,6.45-18.22,9.25-28.68,8.09-5.97-.66-11.55-2.11-17.12-4.36l-17.61-7.1c-13.74-5.54-28.18-8.7-42.66-3,1.22-14.34-3.76-26.87-12.11-38.34l-11-13.42c-4.62-5.64-8.66-11.34-11.65-17.97-6.71-14.86-4.37-31.76,6.26-44.51-15.84-4.78-28.43-13.3-32.22-29.9-1.27-5.68-1.7-11.35-1.53-17.25l.58-19.21c.1-15.54-2.44-30.02-14.45-40.64,20.76-5.06,30.16-19.36,40.47-36.24,2.38-3.89,4.62-7.56,7.38-11.2,13.02-17.19,31.95-23.86,51.53-12.79-.8-15.66,4.82-30.57,18.58-38.29,5.7-3.2,11.71-5.29,18.16-6.56l17.98-3.54c7.35-1.45,14.28-3.65,20.93-7.03,7.14-3.63,12.92-8.87,16.67-16.09,6.04,11.4,16.67,17.03,28.63,20.92,5.18,1.49,10.23,2.52,15.52,3.67l15.25,3.33c5.11,1.11,9.7,3.34,14.15,6.01,12.91,7.76,18.11,22.68,17.24,37.62l6.54-3.08c8.69-3.41,18.09-3.15,26.58.83,10.01,4.69,16.7,12.2,22.47,21.48l8.37,13.45c8.77,13.25,19.31,23.96,35.55,27.53-11.91,10.14-15.03,25.75-14.57,40.97v-.03ZM257.26,131.62c-21.89-.23-43.58,4.99-62.94,14.85-38.92,19.8-65.79,57.18-72.98,100.18-3.59,21.48-2.38,43.5,3.59,64.54,3.82,13.48,9.74,26.01,17.31,37.75,13.1,20.33,31.19,36.69,52.91,47.48,20.06,9.97,42.52,15.09,65.05,14.36,32.24-1.05,64.81-14.39,88.16-36.63,18.24-17.38,31.47-39.65,38.29-63.89,9.25-32.89,6.38-69.12-7.95-100.05-21.79-47.02-69.44-78.04-121.42-78.59h-.02ZM383.34,311.21c-5.24,17.99-14.16,34.9-26.25,49.38-18.15,21.74-42.61,36.62-69.94,43.31-24.13,5.9-49.47,4.76-73.1-2.99-26.86-8.8-50.37-26.24-66.6-49.31-19.94-28.34-28.06-62.4-24.28-96.64,4.94-44.7,31.72-84.32,71.75-105,14.66-7.57,30.8-12.19,47.32-14.05,32.04-3.61,65.95,5.74,91.79,24.78,18.13,13.36,32.59,30.65,42.06,51.11,14.29,30.9,16.78,66.64,7.24,99.4h.01ZM316.34,154.99c-9.24-4.89-18.98-8.66-29.03-11.22,36.44,9.43,67.75,34.87,83.97,69.86,13.47,29.06,16.21,63.48,7.5,94.42-6.49,23.09-18.96,43.9-36.06,60.2-21.56,20.54-52.51,33.39-82.8,34.39-1.33.04-2.67.07-4,.07-19.52,0-39.28-4.69-57.15-13.57-20.16-10.02-37.34-25.44-49.69-44.6-7.38-11.46-12.87-23.43-16.32-35.56-5.67-20-6.81-40.51-3.39-60.97,6.79-40.62,32.45-75.86,68.63-94.27,6.17-3.14,12.59-5.77,19.16-7.88-8.16,2.56-16.08,5.93-23.62,10.05-15.66,8.56-29.32,20.65-40.09,34.75-20.89,27.32-29.42,61.06-25.98,95.17,3.16,31.34,17.23,60.72,40.19,82.35,15.45,14.55,34.36,25.06,54.92,30.41,21.74,5.66,44.45,5.88,66.35.06,20.66-5.5,39.39-15.78,54.8-30.38,36.93-34.99,49.54-88.67,34.9-137.12-4.1-13.56-10.16-26.15-18.42-37.68-11.43-15.96-26.47-29.26-43.87-38.47h0Z"/>
  <path class="st0" d="M378.67,210.21c-21.79-47.02-69.44-78.04-121.42-78.59-21.89-.23-43.58,4.99-62.94,14.85-38.92,19.8-65.79,57.18-72.98,100.18-3.59,21.48-2.38,43.5,3.59,64.54,3.82,13.48,9.74,26.01,17.31,37.75,13.1,20.33,31.19,36.69,52.91,47.48,20.06,9.97,42.52,15.09,65.05,14.36,32.24-1.05,64.81-14.39,88.16-36.63,18.24-17.38,31.47-39.65,38.29-63.89,9.25-32.89,6.38-69.12-7.95-100.05h-.02ZM383.34,311.21c-5.24,17.99-14.16,34.9-26.25,49.38-18.15,21.74-42.61,36.62-69.94,43.31-24.13,5.9-49.47,4.76-73.1-2.99-26.86-8.8-50.37-26.24-66.6-49.31-19.94-28.34-28.06-62.4-24.28-96.64,4.94-44.7,31.72-84.32,71.75-105,14.66-7.57,30.8-12.19,47.32-14.05,32.04-3.61,65.95,5.74,91.79,24.78,18.13,13.36,32.59,30.65,42.06,51.11,14.29,30.9,16.78,66.64,7.24,99.4h.01Z"/>
  <path class="st0" d="M378.62,231.14c-4.1-13.56-10.16-26.15-18.42-37.68-11.43-15.96-26.47-29.26-43.87-38.47-9.24-4.89-18.98-8.66-29.03-11.22-.38-.1-.75-.19-1.13-.29-9.21-2.25-18.68-3.48-28.29-3.62-13.51-.19-26.96,1.77-39.82,5.7-.3.09-.6.19-.9.28-8.16,2.56-16.08,5.93-23.62,10.05-15.66,8.56-29.32,20.65-40.09,34.75-20.89,27.32-29.42,61.06-25.98,95.17,3.16,31.34,17.23,60.72,40.19,82.35,15.45,14.55,34.36,25.06,54.92,30.41,21.74,5.66,44.45,5.88,66.35.06,20.66-5.5,39.39-15.78,54.8-30.38,36.93-34.99,49.54-88.67,34.9-137.12h0ZM371.07,301.37c-.37.04-1.16-.47-1.3-.82-.25-.63-.35-1.81-.17-2.43.75-2.69-.39-5.44-3.04-6.37-4.89-1.71-8.41,7.34-9.22,11.95l-2.43,13.84c-.8,4.56-2.13,8.67-4.89,12.42-2.62,3.55-5.54,6.79-9.12,9.43l-12.33,9.08c-2.15-2.94-5.04-4.8-8.49-5.26-2.7-3.71-7.26-4.28-10.67-1.42l-10.61,8.88c-1.78-1.26-2.19-3.5-.83-5.38,4.94-6.85,12.33-8.9,19.81-11.1l8.56-2.52c8.4-3.01,14.69-8.98,18.64-16.9l5-11.93c2.54-6.05,5.04-12.6,12-14.99,4.13-1.42,8.39.84,10.13,4.86,1.32,3.04.83,8.46-1.04,8.64v.02ZM206.25,377.74c-8.36-4.43-15.89-10.17-21.75-17.53-3.22-4.05-2.34-9.17,1.06-12.65,3.06-3.14,7.99-4.3,11.45-1.25l7.62,6.71c6.4,4.82,13.31,8.32,20.83,11.09,23.17,8.56,48.66,7.51,70.57-4.08,6.6-3.49,12.49-7.62,17.66-12.96,3.35-3.46,8.42-3.18,11.96.07,3.88,3.55,4.86,8.96,1.58,13.2-3.84,4.96-8.49,9.01-13.69,12.63-7.7,5.36-16.12,9.03-25.16,11.63-19.83,5.72-40.43,6.12-60.46,1.17-7.64-1.89-14.74-4.34-21.68-8.02h.01ZM156.8,317.4l-2.15-13.1c-.81-4.93-4.29-14.22-9.36-12.61-2.82.9-3.94,3.85-3.15,6.62.34,1.21-.04,3.02-1.47,3-1.54-.02-1.51-1.74-1.7-2.87-.9-5.11,2-10.2,7.31-10.93,3.25-.44,6.33,1.23,8.7,3.47,3.23,3.04,5.13,7,6.67,11.18,4.1,11.15,7.69,20.99,18.57,27.07,7.92,4.42,15.96,4.79,23.62,8.27,3.84,1.75,7.23,4.21,9.73,7.49,1.42,1.87,1.41,3.96-.53,5.7l-10.47-8.66c-3.5-2.89-8.26-2.76-11.23,1.26-3.27.48-5.92,2.15-8.05,5.02-8.15-5.22-16.75-11.2-22.29-19.42-2.38-3.53-3.53-7.28-4.22-11.48h.02ZM177.97,227.91l4.33-1.8c-2.66,7.37-5.18,14.43-8.49,21.42-1.26,2.67-2.93,5.1-4.97,7.03-1.58,1.51-3.5,1.25-4.89-.34-3.26-4.17-2.28-9.17,1.25-13.62l-10.11-4.61,4.59-8.94,10.21,5.84,8.08-4.97h0ZM172.08,229.84c1.75-3.68,3.4-6.61,5.45-9.97l4.75,4.71-5.03,2.27-5.17,2.99h0ZM221.66,279.62c1.28,9.28,7.99,17,17.21,18.89,2.53.52,5.09.16,7.83-.04-3.62-4.36-6.96-8.29-9.64-13.06-5.3-9.43-7.12-19.94-5.21-30.6,1.77-9.87,2.4-17.29,0-27.11-1.73-7.11-5.26-13.11-10.34-18.56,11.03.73,19.62,5.64,21.96,16.39,2,9.24-.64,19.83-3.51,28.91-1.59,5.02-2.92,9.95-2.81,15.34.2,9.35,3.48,18.28,8.9,25.75,1.84,2.53,5.24,4.24,7.11,2.6.54-.48,1-1.94.66-2.78l-2.63-6.53c-5.07-12.6-8.52-21.9-3.84-35.8,4.78-14.18,4.53-29.79-3.2-42.97l5.11-2.68c3.05-1.6,5.07-4.35,6.57-7.44,1.47,2.85,3.09,5.4,5.75,6.86l5.96,3.28c-6,9.79-7.37,22.07-5.56,33.16.68,4.21,1.85,8.11,3.08,12.18,3.69,12.25.14,21.89-4.31,33.11l-2.62,6.6c-.37.92-.01,2.73.78,3.18,3.59,2.04,7.63-3.49,9.78-7.4,3.52-6.42,5.8-13.41,5.96-20.83.11-5.16-1.03-10-2.54-14.85-2.93-9.39-5.85-19.54-3.85-29.24,2.31-11.21,10.78-15.93,22.12-16.86-5.87,6.09-9.69,13.18-11.08,21.38-1.72,10.17-.67,16.08.8,25.86,1.56,10.37-.41,20.54-5.67,29.54-2.68,4.59-5.83,8.34-9.32,12.49,10.93,2.06,20.03-4.12,23.68-13.78,2-5.3,2.01-10.88.63-16.44-2.71-10.89-6.07-22.03-4.87-33.32,1.03-9.64,9.32-14.39,18.75-14.7-9.12,11.37-11.42,23.74-6.35,37.25,1.9,5.08,3.17,10.12,2.86,15.54-.99,17.04-15.02,25.65-30.63,28.93-15.18,3.19-32.75.98-45.47-7.97-9.57-6.73-13.8-18.11-11.15-29.49l2.82-8.88c4.33-13.65,1.69-23.98-6.98-35.35,9.71.07,18.43,5.27,19.03,15.28.67,11.04-2.19,21.62-4.98,32.31-1.02,3.93-1.33,7.8-.78,11.82l-.02.03ZM234.4,211.27c3.57-3.42,5.89-7.13,7.36-12.12l4.62,8.32-4.01,2c1.7,2.91,3.02,5.66,4.31,8.87.35,4.11.17,8.08-1.43,11.81-.07-8.12-3.88-15.28-10.86-18.89h0ZM265.31,207.46l4.62-8.46c1.32,4.66,3.63,8.72,7.48,12.21-7.31,4.16-10.09,9.99-11.07,18.75-1.25-3.65-1.95-7.82-1.04-11.87.69-3.06,2.63-5.82,4.09-8.61l-4.08-2.02ZM234.78,308.51c13.92,3.65,28.11,3.51,42.03.03,10.63-2.66,20.22-7.16,29.61-12.73,3.33-1.98,6.21-4.66,9.85-6.08,6.71-2.6,14.83-.65,20.39,3.35,2.99,2.15,3.46,5.63,1.47,8.37-4.05,5.6-12.05,9.22-18.69,11.62-.72.26-2.08.51-2.76.19-8.41-3.96-18.46-5.52-26.85-1.53-3.47,1.65-6.07,4.48-7.2,8.17l14.65.1c3.65.03,9.59,1.25,10.58,3.92.27.72-.09,1.95-.64,2.64-3.2,4.05-7.52,6.93-12.51,8.31-8.21,2.28-14.14-3.24-18.17-10.12-1.81-3.08-5.5-3.87-8.4-1.74-2.31,1.69-3.83,4.1-4.96,6.89-4.64-2.43-9.84-2.51-14.52,0-1.23-2.65-2.59-5.18-4.88-6.86-2.89-2.11-6.42-1.49-8.27,1.53-3.88,6.61-9.92,12.33-17.82,10.44-5.39-1.29-9.98-4.4-13.26-8.86-2.61-3.55,4.33-6.13,9.88-6.17l14.97-.1c-.8-3.04-2.77-5.35-5.35-7.08-8.02-5.39-20.72-3.82-29.64.77-7.19-2.09-16.66-6.38-20.77-12.51-1.76-2.63-1.27-5.65,1.3-7.7,5.68-4.52,13.57-5.81,20.61-3.9l12.45,7.84c8.3,5.23,17.36,8.69,26.89,11.19v.02ZM363.79,242.05c.37,8.32-6.67,12.78-14.79,13.13,2.95-4.49,2.6-9.75-.39-14.07l12.9-5.89c1.26,2.1,1.97,4.38,2.28,6.83h0ZM346.72,240.53c3.38,4.39,4.42,10.43.68,14.13-4.84,4.8-11.34-11-13.45-16.62l-4.48-11.96c1.77.55,3.27,1.08,4.67,1.98l7.57,4.82,10.33-5.81,4.61,8.96-9.93,4.5h0ZM334.56,226.81c-1.67-1-3.07-1.54-5.2-2.2l4.99-4.78c2.23,3.42,3.93,6.5,5.44,10.16l-5.24-3.19h.01ZM163.2,241.13c-3.02,4.11-3.49,9.49-.43,14-7.83-.19-15.21-4.95-14.77-13.13.3-2.37,1.03-4.57,2.34-6.74l12.86,5.88h0ZM212.3,351.76l-3.31,2.73-6.29-4.78-4.07-3.75c-1.57-1.45-3.32-2.32-5.61-2.64,2.25-2.36,5.69-2.76,8.26-.65l11.02,9.08h0ZM299.48,351.72l10.85-9.01c2.56-2.12,5.99-1.83,8.23.66-2.82.23-4.72,1.75-6.57,3.58-2.78,2.75-5.49,5.06-9,7.41-1.47-.69-2.41-1.43-3.5-2.63h-.01ZM234.82,154.18c13.79-2.47,27.49-2.46,41.24,0,9.79,1.75,18.92,4.56,27.79,9.08,10.05,5.12,19.14,11.47,27.43,19.1,6.32,5.96,11.92,12.11,17.15,19.04,4.68,6.21,8.76,12.61,12.69,19.24l-19.15,10.63c-3.13-7.09-7.14-13.53-11.81-19.79-11.22-15.03-26.32-26.8-44.3-32.97-7.98-2.74-15.87-3.8-24.1-4.38-11.92-.85-23.73.75-35.06,4.52-12.25,4.07-23.12,10.82-32.64,19.45-10.29,9.38-18.25,20.55-24.28,33.19l-19.13-10.66c7.89-14.24,17.93-27.3,30.02-38.49,15.35-14.12,33.51-24.26,54.14-27.95h0Z"/>
  <path class="st0" d="M261.99,168.3l.09-6.21-1.66,5.49c-.14.48-1.06.88-1.38.73s-.59-.78-.68-1.24l-1-5.3-.46,6.35-1.54-.03.38-9.34,2.47.06,1.42,6.27,1.8-6.02,2.5.1-.37,9.1-1.55.03h-.02Z"/>
  <path class="st0" d="M229.07,168.6c-.31-.29-1.54-.11-1.71.22l.95,3.38-1.67.53-2.44-8.99,4.74-1.23c1.39-.36,2.39.86,2.71,2.06.29,1.09-.39,2.36-1.37,2.98l3.63,3.1-1.94.66-2.91-2.71h0ZM226.95,167.24l2.22-.79c.33-.12.72-.77.8-1.08s-.46-1.2-.8-1.12l-2.86.61.64,2.39h0Z"/>
  <path class="st0" d="M327.45,198.37c-1.8-.1-3.16-1.73-3.57-2.91-.64-1.81.19-3.4,1.3-4.68,1.63-1.89,4.04-2.42,5.91-.9s2.25,4.08.6,6.1c-1,1.22-2.28,2.49-4.23,2.39h0ZM328.8,196.25c1.12-.81,1.9-1.74,2.24-2.93.22-.79-.42-1.87-.98-2.2-.67-.39-1.93-.4-2.51,0-1.06.72-1.84,1.6-2.14,2.83-.18.74.32,1.84.8,2.22.58.46,1.92.56,2.6.08h0Z"/>
  <path class="st0" d="M337.22,204.26c-1.81,1.57-4.09,1.82-5.6-.09l-2.09-2.65,6.86-5.9c1.03,1.22,2.11,2.42,2.71,3.64.97,1.97-.41,3.73-1.88,5h0ZM334.14,203.8c1.72-.31,3.17-1.65,3.57-3.14.25-.94-.81-2.17-1.52-2.7l-4.34,3.8c.38.75,1.42,2.2,2.29,2.04h0Z"/>
  <path class="st0" d="M174.78,211.5l-2.11,3.02-7.2-5.37,2.09-3.03c.97-1.41,2.75-1.93,4.3-1.12,2.92,1.51,4.65,4.04,2.92,6.51h0ZM172.38,212.12c.63-.59,1.68-1.96,1.4-2.83-.56-1.7-2.3-2.87-4.05-2.91-.77.35-1.63,1.58-2.02,2.34l4.68,3.4h0Z"/>
  <polygon class="st0" points="281.91 171.37 280.14 171.15 281.07 167.18 277.75 166.46 276.83 170.4 275.15 170 277.23 161 278.85 161.33 278.17 164.87 281.37 165.59 282.17 162.19 283.8 162.5 281.91 171.37"/>
  <path class="st0" d="M210.95,179c.2.38-1.07,1.03-1.5.84l-3.79-7.87,1.37-.99,1.86,3.48,1.34-4.87,2.09-1.18-1.4,4.72,5.39,3.6-2,.92-3.75-2.78c-.98,1.21-.54,2.61.39,4.12h0Z"/>
  <path class="st0" d="M177.95,206.77l-6.5-5.85,1.01-1.36,2.62,2.25,2.19-2.44-2.6-2.34,1.11-1.29,6.62,5.81-1.11,1.43-2.83-2.69-2.2,2.6,2.85,2.54c-.15.33-.66.91-1.15,1.34h0Z"/>
  <path class="st0" d="M271.79,169.63l-.57-2.45-3.4-.35-.9,1.76c-.2.38-1.48.05-1.8-.17l4.37-8.37c.49-.27,1.66-.11,2.01.32l2.06,9.32-1.77-.07h0ZM270.92,165.61l-.71-3.48-1.57,3.1,2.28.38h0Z"/>
  <path class="st0" d="M221.98,172.3l-3.19,1.17-.1,2.1c-.02.39-.98.59-1.61.68l-.08-9.46c.13-.5,1.37-.95,1.84-.71l6.15,7.1c-.54.32-1.32.77-1.69.65s-.74-.76-1.32-1.53h0ZM220.86,171.01l-2.19-2.55.03,3.35,2.17-.8h0Z"/>
  <polygon class="st0" points="339.33 214.11 338.29 212.75 341.34 210.38 339.56 207.75 336.31 209.92 335.43 208.58 342.35 203.52 343.42 204.81 340.79 206.89 342.57 209.56 345.39 207.44 346.23 208.98 339.33 214.11"/>
  <path class="st0" d="M246.3,166.55c-.7-.02-1.91.39-2.01.9-.11.56-.14,1.4-.46,1.43l-1.65.17,2.15-8.34c.16-.61.51-1.2,1.17-1.32.61-.11,1.08.47,1.39,1.11l3.64,7.61-1.51.29c-.55.11-.97-1.83-1.23-1.84l-1.5-.04v.03ZM247.13,164.94l-1.49-3.14-.79,3.3,2.28-.16Z"/>
  <path class="st0" d="M289.95,171.88l-3.25-1.2-1.41,1.83-1.66-.62,5.87-7.48c.44-.04,1.38.22,1.89.51l.19,9.58c-.33.04-1.19-.13-1.5-.39s-.25-1.1-.14-2.23h.01ZM289.87,170.14l-.13-3.42-2.05,2.67,2.18.76h0Z"/>
  <path class="st0" d="M311.61,182.91l-2.91-1.83-1.58,1.23c-.31.24-1.08-.47-1.5-.91l7.74-5.73,1.51.98-2.23,9.49-1.61-.95.58-2.28ZM312.1,181.43l.76-3.4-2.75,2.07,1.99,1.33h0Z"/>
  <path class="st0" d="M166.93,219.77l1.08,1.7c.25.4-.54,1.42-.78,1.59l-5.65-7.24c0-.46.5-1.3.99-1.77l9.01,1.73c-.26.61-.57,1.48-.93,1.43l-1.89-.26-1.84,2.81h0ZM167.05,216.63l-3.27-.61,2.03,2.52,1.23-1.91h.01Z"/>
  <path class="st0" d="M199.66,183.99c-.2.39.48,1.79.15,2.05l-1.24.98-2.45-9.14,1.59-1.13,7.64,5.56c-.54.46-1.28,1-1.58.8l-1.51-.97c-.59.27-2,1.18-2.6,1.85h0ZM200.9,181.15l-2.73-2.07.81,3.26,1.92-1.19h0Z"/>
  <path class="st0" d="M344.85,219.6l-1.51-2.78c-.43-.1-1.19-.04-1.95.08-.49.08-1.22-.88-1.09-1.46l8.97-1.62,1.12,1.46-5.91,7.39c-.29-.29-.82-.96-.93-1.31-.12-.41.5-1.02,1.3-1.75h0ZM345.88,218.31l2.13-2.62-3.28.58,1.15,2.04Z"/>
  <polygon class="st0" points="308.45 172.73 309.86 173.6 303.05 180.12 301.31 179.19 303.26 169.76 304.82 170.55 303.47 177.38 308.45 172.73"/>
  <path class="st0" d="M236.82,166.28l-3.89-4.76,1.86-.33,2.55,2.92,1.15-3.36c.17-.5,1.56-.76,1.89-.6l-1.74,5.42c-.26.82.36,2.66.48,3.61.05.41-1.07.86-1.57.76l-.72-3.66h0Z"/>
  <path class="st0" d="M327.01,186.34l-5.65,1.99-2.35,2.9-1.29-1.26c.69-.88,2.14-2.05,2.33-2.91l1.32-5.77,1.4,1.21-.79,3.93,3.44-1.3c.4-.15,1.21.57,1.59,1.21h0Z"/>
  <path class="st0" d="M192.6,187.07l-5.53-2.37,1.42-1.31,3.59,1.53-.52-3.66,1.46-1.28.82,5.76c.13.89,1.6,2.07,2.35,3.01l-1.36,1.22-2.23-2.89h0Z"/>
  <polygon class="st0" points="188.4 195.59 183.48 190.1 181.57 191.69 180.54 190.57 185.4 186.01 186.49 187.12 184.59 188.89 189.65 194.32 188.4 195.59"/>
  <polygon class="st0" points="295.63 176.27 293.98 175.71 297.12 168.64 294.91 167.7 295.57 166.31 301.49 168.91 300.96 170.27 298.58 169.35 295.63 176.27"/>
  <rect class="st0" x="180.68" y="191.48" width="1.76" height="9.08" transform="translate(-85.41 185.19) rotate(-44.87)"/>
  <polygon class="st0" points="241.24 383.08 239.08 382.8 236.22 375.76 234.96 382.1 233.09 381.74 234.93 371.75 236.89 372.21 239.83 379.36 241.12 372.94 242.98 373.27 241.24 383.08"/>
  <path class="st0" d="M216.53,376.44l-.74-4.28c-.1-.55-1.3-1.24-1.74-1.38l-1.7,3.9-1.8-.97,3.91-9.2,5.26,2.38c1.45.66,1.87,2.26,1.41,3.4-.61,1.5-2.03,2.13-3.53,1.7.77,1.82,1.04,3.22,1.26,5.42l-2.31-.96h-.02ZM217.78,370.49c.35.13,1.29-.6,1.34-.97s-.28-1.21-.65-1.37l-2.84-1.23-.9,2.46,3.05,1.11h0Z"/>
  <path class="st0" d="M286.72,376.25c-.78-.65-2.08-.59-2.65.03l1.22,3.83-2.03.71-2.84-9.72,5.53-1.65c1.56-.47,2.93.58,3.34,1.97.38,1.29-.19,2.72-1.75,3.3,1.72.84,3.14,1.95,4.4,3.28-.82.45-2.11.82-2.59.42l-2.63-2.17h0ZM286.47,373.7c.6-.19,1.02-1.37.79-1.81-.2-.37-1.19-.76-1.64-.63l-2.7.81.68,2.51,2.87-.89h0Z"/>
  <polygon class="st0" points="305.75 371.51 300.57 363.01 302.23 361.94 309.13 365.26 305.86 359.77 307.42 358.68 312.64 367.21 310.82 368.35 304.15 365.06 307.38 370.41 305.75 371.51"/>
  <path class="st0" d="M251.82,380.36l-1.28-.12c-.31-.03-.25-.91-.17-1.65l4.51.35-.27,3.85c-1.68,1.43-3.92,1.86-6.07,1.22-2.29-.68-3.51-2.72-3.44-5.14.04-1.51.56-3.04,1.53-3.95,1.17-1.09,2.79-1.41,4.41-1.21,1.83.22,3.33.95,3.81,3.07l-2.06.42c-.58-1.65-1.95-2.06-3.34-1.73s-2.12,1.6-2.17,3.17c-.05,1.39.33,2.82,1.42,3.46s3.23.29,3.81-.57c.07-.11.16-.73.15-.87,0-.2-.52-.27-.83-.3h0Z"/>
  <polygon class="st0" points="197.69 366.22 195.65 364.59 196.7 359.11 194.31 359.2 192.31 361.67 190.78 360.3 197.16 352.55 198.59 353.89 196.06 357.29 201.89 356.53 203.96 358.3 198.66 358.98 197.69 366.22"/>
  <path class="st0" d="M228.3,378.19l-3.89-1.26-1.48,1.92-1.99-.72,6.53-8.34,2.2.6.93,10.78-2.1-.57-.2-2.41h0ZM228.18,376.28l-.34-3.86-2.36,3.04,2.69.82h0Z"/>
  <path class="st0" d="M277.04,379.75l-3.99.66-.66,2.54-2.05.39,2.05-10.62,2.21-.47,5.83,9.15-2.21.47-1.15-2.13h-.03ZM275.97,378.16l-2.06-3.35-.64,3.86,2.71-.51h0Z"/>
  <path class="st0" d="M318.79,359.74l-3.11,2.38.67,2.49-1.6,1.28-3.3-10.02,1.82-1.62,9.34,5.33-1.76,1.4-2.06-1.24h0ZM317.09,358.71l-3.32-1.9,1.31,3.73,2.01-1.83h0Z"/>
  <path class="st0" d="M290.82,367.83l1.8-.96,3.05,6.61c.24.53,1.66.56,2.25.39.55-.16,1.59-1.18,1.35-1.77l-2.85-6.89,1.85-.97,2.67,6.16c.37.86.5,2.39-.09,3.26-.43.64-1.49,1.35-2.37,1.79-2.01,1-4.1.51-5-1.55l-2.67-6.07h.01Z"/>
  <path class="st0" d="M206.42,369.1l-3.54-2.31-1.81,1.55-1.93-1.16,8.34-6.36c.62.19,1.49.67,2.01,1.11l-1.57,10.53c-.78-.29-1.67-.61-1.77-1.06s.1-1.46.27-2.3ZM206.68,367.23l.64-3.89-2.97,2.35,2.33,1.54Z"/>
  <path class="st0" d="M266.55,383.48c-.49.28-1.55.49-2.06.47l-.64-8.45-3.02.15-.04-1.67,7.9-.69.21,1.73-2.97.26.62,8.19h0Z"/>
</svg>